<mxfile host="65bd71144e">
    <diagram name="routes" id="97916047-d0de-89f5-080d-49f4d83e522f">
        <mxGraphModel dx="2460.5" dy="552" grid="1" gridSize="10" guides="1" tooltips="1" connect="1" arrows="1" fold="1" page="1" pageScale="1.5" pageWidth="1169" pageHeight="827" background="none" math="0" shadow="0">
            <root>
                <mxCell id="0"/>
                <mxCell id="1" parent="0"/>
                <mxCell id="2" value="home" style="rounded=1;fillColor=#10739E;strokeColor=none;shadow=1;gradientColor=none;fontStyle=1;fontColor=#FFFFFF;fontSize=14;" parent="1" vertex="1">
                    <mxGeometry x="853" y="310" width="48" height="60" as="geometry"/>
                </mxCell>
                <mxCell id="4" value="productID" style="rounded=1;fillColor=#10739E;strokeColor=none;shadow=1;gradientColor=none;fontStyle=1;fontColor=#FFFFFF;fontSize=14;" parent="1" vertex="1">
                    <mxGeometry x="340" y="410" width="100" height="60" as="geometry"/>
                </mxCell>
                <mxCell id="5" value="cart" style="rounded=1;fillColor=#10739E;strokeColor=none;shadow=1;gradientColor=none;fontStyle=1;fontColor=#FFFFFF;fontSize=14;" parent="1" vertex="1">
                    <mxGeometry x="460" y="410" width="70" height="60" as="geometry"/>
                </mxCell>
                <mxCell id="6" value="payment" style="rounded=1;fillColor=#10739E;strokeColor=none;shadow=1;gradientColor=none;fontStyle=1;fontColor=#FFFFFF;fontSize=14;" parent="1" vertex="1">
                    <mxGeometry x="750" y="410" width="70" height="60" as="geometry"/>
                </mxCell>
                <mxCell id="phA1oNzRPl5FCmUKWXDb-55" value="login" style="rounded=1;fillColor=#10739E;strokeColor=none;shadow=1;gradientColor=none;fontStyle=1;fontColor=#FFFFFF;fontSize=14;" parent="1" vertex="1">
                    <mxGeometry x="550" y="410" width="80" height="60" as="geometry"/>
                </mxCell>
                <mxCell id="phA1oNzRPl5FCmUKWXDb-60" value="register" style="rounded=1;fillColor=#10739E;strokeColor=none;shadow=1;gradientColor=none;fontStyle=1;fontColor=#FFFFFF;fontSize=14;" parent="1" vertex="1">
                    <mxGeometry x="650" y="410" width="80" height="60" as="geometry"/>
                </mxCell>
                <mxCell id="phA1oNzRPl5FCmUKWXDb-61" value="adresses" style="rounded=1;fillColor=#10739E;strokeColor=none;shadow=1;gradientColor=none;fontStyle=1;fontColor=#FFFFFF;fontSize=14;" parent="1" vertex="1">
                    <mxGeometry x="840" y="410" width="108" height="60" as="geometry"/>
                </mxCell>
                <mxCell id="phA1oNzRPl5FCmUKWXDb-62" value="dashboard" style="rounded=1;fillColor=#10739E;strokeColor=none;shadow=1;gradientColor=none;fontStyle=1;fontColor=#FFFFFF;fontSize=14;" parent="1" vertex="1">
                    <mxGeometry x="970" y="410" width="108" height="60" as="geometry"/>
                </mxCell>
                <mxCell id="phA1oNzRPl5FCmUKWXDb-63" value="products" style="rounded=1;fillColor=#10739E;strokeColor=none;shadow=1;gradientColor=none;fontStyle=1;fontColor=#FFFFFF;fontSize=14;" parent="1" vertex="1">
                    <mxGeometry x="1090" y="410" width="108" height="60" as="geometry"/>
                </mxCell>
                <mxCell id="phA1oNzRPl5FCmUKWXDb-64" value="orders" style="rounded=1;fillColor=#10739E;strokeColor=none;shadow=1;gradientColor=none;fontStyle=1;fontColor=#FFFFFF;fontSize=14;" parent="1" vertex="1">
                    <mxGeometry x="1225" y="410" width="108" height="60" as="geometry"/>
                </mxCell>
                <mxCell id="phA1oNzRPl5FCmUKWXDb-65" value="users" style="rounded=1;fillColor=#10739E;strokeColor=none;shadow=1;gradientColor=none;fontStyle=1;fontColor=#FFFFFF;fontSize=14;" parent="1" vertex="1">
                    <mxGeometry x="1510" y="410" width="108" height="60" as="geometry"/>
                </mxCell>
                <mxCell id="phA1oNzRPl5FCmUKWXDb-66" value="add/edit produts" style="rounded=1;fillColor=#10739E;strokeColor=none;shadow=1;gradientColor=none;fontStyle=1;fontColor=#FFFFFF;fontSize=14;" parent="1" vertex="1">
                    <mxGeometry x="1090" y="530" width="108" height="60" as="geometry"/>
                </mxCell>
                <mxCell id="phA1oNzRPl5FCmUKWXDb-67" value="settings" style="rounded=1;fillColor=#10739E;strokeColor=none;shadow=1;gradientColor=none;fontStyle=1;fontColor=#FFFFFF;fontSize=14;" parent="1" vertex="1">
                    <mxGeometry x="100" y="410" width="100" height="60" as="geometry"/>
                </mxCell>
                <mxCell id="67" style="edgeStyle=entityRelationEdgeStyle;html=1;fontSize=25;" edge="1" parent="1" source="phA1oNzRPl5FCmUKWXDb-68" target="63">
                    <mxGeometry relative="1" as="geometry"/>
                </mxCell>
                <mxCell id="phA1oNzRPl5FCmUKWXDb-68" value="my-orders" style="rounded=1;fillColor=#10739E;strokeColor=none;shadow=1;gradientColor=none;fontStyle=1;fontColor=#FFFFFF;fontSize=14;" parent="1" vertex="1">
                    <mxGeometry x="1382" y="410" width="108" height="60" as="geometry"/>
                </mxCell>
                <mxCell id="7" value="ROLES" style="text;strokeColor=none;fillColor=none;html=1;fontSize=25;fontStyle=1;verticalAlign=middle;align=center;" parent="1" vertex="1">
                    <mxGeometry x="130" y="90" width="100" height="40" as="geometry"/>
                </mxCell>
                <mxCell id="8" value="&lt;font color=&quot;#3399ff&quot; style=&quot;font-size: 25px;&quot;&gt;user public&lt;/font&gt;&lt;br style=&quot;font-size: 25px;&quot;&gt;&lt;font color=&quot;#ffff66&quot; style=&quot;font-size: 25px;&quot;&gt;user shop&lt;/font&gt;&lt;br style=&quot;font-size: 25px;&quot;&gt;&lt;font color=&quot;#99ff33&quot; style=&quot;font-size: 25px;&quot;&gt;admin&lt;/font&gt;" style="text;strokeColor=none;fillColor=none;html=1;fontSize=25;fontStyle=3;verticalAlign=middle;align=left;" parent="1" vertex="1">
                    <mxGeometry x="130" y="130" width="100" height="70" as="geometry"/>
                </mxCell>
                <mxCell id="11" value="&lt;span style=&quot;color: rgb(51, 153, 255); font-size: 14px; font-style: italic; text-align: left;&quot;&gt;user public&lt;/span&gt;" style="text;strokeColor=none;fillColor=none;html=1;fontSize=14;fontStyle=1;verticalAlign=middle;align=center;fontColor=#99FF33;" parent="1" vertex="1">
                    <mxGeometry x="455" y="480" width="80" height="20" as="geometry"/>
                </mxCell>
                <mxCell id="12" value="&lt;span style=&quot;color: rgb(51, 153, 255); font-size: 14px; font-style: italic; text-align: left;&quot;&gt;user public&lt;/span&gt;" style="text;strokeColor=none;fillColor=none;html=1;fontSize=14;fontStyle=1;verticalAlign=middle;align=center;fontColor=#99FF33;" parent="1" vertex="1">
                    <mxGeometry x="550" y="480" width="80" height="20" as="geometry"/>
                </mxCell>
                <mxCell id="13" value="&lt;span style=&quot;color: rgb(51, 153, 255); font-size: 14px; font-style: italic; text-align: left;&quot;&gt;user public&lt;/span&gt;" style="text;strokeColor=none;fillColor=none;html=1;fontSize=14;fontStyle=1;verticalAlign=middle;align=center;fontColor=#99FF33;" parent="1" vertex="1">
                    <mxGeometry x="650" y="480" width="80" height="20" as="geometry"/>
                </mxCell>
                <mxCell id="15" value="&lt;font style=&quot;font-style: italic; text-align: left; font-size: 14px;&quot; color=&quot;#ffff66&quot;&gt;user shop&lt;/font&gt;" style="text;strokeColor=none;fillColor=none;html=1;fontSize=14;fontStyle=1;verticalAlign=middle;align=center;fontColor=#99FF33;" parent="1" vertex="1">
                    <mxGeometry x="854" y="480" width="80" height="20" as="geometry"/>
                </mxCell>
                <mxCell id="16" value="&lt;span style=&quot;font-style: italic; text-align: left;&quot;&gt;&lt;font style=&quot;font-size: 14px;&quot;&gt;admin&lt;/font&gt;&lt;/span&gt;" style="text;strokeColor=none;fillColor=none;html=1;fontSize=14;fontStyle=1;verticalAlign=middle;align=center;fontColor=#99FF33;" parent="1" vertex="1">
                    <mxGeometry x="984" y="480" width="80" height="20" as="geometry"/>
                </mxCell>
                <mxCell id="17" value="&lt;span style=&quot;font-style: italic; text-align: left;&quot;&gt;&lt;font style=&quot;font-size: 14px;&quot;&gt;admin&lt;/font&gt;&lt;/span&gt;" style="text;strokeColor=none;fillColor=none;html=1;fontSize=14;fontStyle=1;verticalAlign=middle;align=center;fontColor=#99FF33;" parent="1" vertex="1">
                    <mxGeometry x="1090" y="480" width="80" height="20" as="geometry"/>
                </mxCell>
                <mxCell id="18" value="&lt;span style=&quot;font-style: italic; text-align: left;&quot;&gt;&lt;font style=&quot;font-size: 14px;&quot;&gt;admin&lt;/font&gt;&lt;/span&gt;" style="text;strokeColor=none;fillColor=none;html=1;fontSize=14;fontStyle=1;verticalAlign=middle;align=center;fontColor=#99FF33;" parent="1" vertex="1">
                    <mxGeometry x="1239" y="480" width="80" height="20" as="geometry"/>
                </mxCell>
                <mxCell id="19" value="&lt;span style=&quot;font-style: italic; text-align: left;&quot;&gt;&lt;font style=&quot;font-size: 14px;&quot;&gt;admin&lt;/font&gt;&lt;/span&gt;" style="text;strokeColor=none;fillColor=none;html=1;fontSize=14;fontStyle=1;verticalAlign=middle;align=center;fontColor=#99FF33;" parent="1" vertex="1">
                    <mxGeometry x="1524" y="480" width="80" height="20" as="geometry"/>
                </mxCell>
                <mxCell id="20" value="&lt;span style=&quot;font-style: italic; text-align: left;&quot;&gt;&lt;font style=&quot;font-size: 14px;&quot;&gt;admin&lt;/font&gt;&lt;/span&gt;" style="text;strokeColor=none;fillColor=none;html=1;fontSize=14;fontStyle=1;verticalAlign=middle;align=center;fontColor=#99FF33;" parent="1" vertex="1">
                    <mxGeometry x="1360" y="480" width="80" height="20" as="geometry"/>
                </mxCell>
                <mxCell id="21" value="&lt;font style=&quot;font-style: italic; text-align: left; font-size: 14px;&quot; color=&quot;#ffff66&quot;&gt;user shop&lt;/font&gt;" style="text;strokeColor=none;fillColor=none;html=1;fontSize=14;fontStyle=1;verticalAlign=middle;align=center;fontColor=#99FF33;" parent="1" vertex="1">
                    <mxGeometry x="1370" y="490" width="80" height="20" as="geometry"/>
                </mxCell>
                <mxCell id="23" value="&lt;span style=&quot;font-style: italic; text-align: left;&quot;&gt;&lt;font style=&quot;font-size: 14px;&quot;&gt;admin&lt;/font&gt;&lt;/span&gt;" style="text;strokeColor=none;fillColor=none;html=1;fontSize=14;fontStyle=1;verticalAlign=middle;align=center;fontColor=#99FF33;" parent="1" vertex="1">
                    <mxGeometry x="1100" y="610" width="80" height="20" as="geometry"/>
                </mxCell>
                <mxCell id="24" value="&lt;span style=&quot;font-style: italic; text-align: left;&quot;&gt;&lt;font style=&quot;font-size: 14px;&quot;&gt;admin&lt;/font&gt;&lt;/span&gt;" style="text;strokeColor=none;fillColor=none;html=1;fontSize=14;fontStyle=1;verticalAlign=middle;align=center;fontColor=#99FF33;" vertex="1" parent="1">
                    <mxGeometry x="853" y="500" width="80" height="20" as="geometry"/>
                </mxCell>
                <mxCell id="25" value="&lt;font style=&quot;font-style: italic; text-align: left; font-size: 14px;&quot; color=&quot;#ffff66&quot;&gt;user shop&lt;/font&gt;" style="text;strokeColor=none;fillColor=none;html=1;fontSize=14;fontStyle=1;verticalAlign=middle;align=center;fontColor=#99FF33;" vertex="1" parent="1">
                    <mxGeometry x="745.5" y="480" width="80" height="20" as="geometry"/>
                </mxCell>
                <mxCell id="26" value="&lt;span style=&quot;font-style: italic; text-align: left;&quot;&gt;&lt;font style=&quot;font-size: 14px;&quot;&gt;admin&lt;/font&gt;&lt;/span&gt;" style="text;strokeColor=none;fillColor=none;html=1;fontSize=14;fontStyle=1;verticalAlign=middle;align=center;fontColor=#99FF33;" vertex="1" parent="1">
                    <mxGeometry x="744.5" y="500" width="80" height="20" as="geometry"/>
                </mxCell>
                <mxCell id="27" value="search" style="rounded=1;fillColor=#10739E;strokeColor=none;shadow=1;gradientColor=none;fontStyle=1;fontColor=#FFFFFF;fontSize=14;" vertex="1" parent="1">
                    <mxGeometry x="220" y="410" width="100" height="60" as="geometry"/>
                </mxCell>
                <mxCell id="29" value="men" style="rounded=1;fillColor=#10739E;strokeColor=none;shadow=1;gradientColor=none;fontStyle=1;fontColor=#FFFFFF;fontSize=14;" vertex="1" parent="1">
                    <mxGeometry x="-150" y="410" width="100" height="60" as="geometry"/>
                </mxCell>
                <mxCell id="31" value="woman" style="rounded=1;fillColor=#10739E;strokeColor=none;shadow=1;gradientColor=none;fontStyle=1;fontColor=#FFFFFF;fontSize=14;" vertex="1" parent="1">
                    <mxGeometry x="-270" y="410" width="100" height="60" as="geometry"/>
                </mxCell>
                <mxCell id="33" value="children" style="rounded=1;fillColor=#10739E;strokeColor=none;shadow=1;gradientColor=none;fontStyle=1;fontColor=#FFFFFF;fontSize=14;" vertex="1" parent="1">
                    <mxGeometry x="-390" y="410" width="100" height="60" as="geometry"/>
                </mxCell>
                <mxCell id="37" value="&lt;span style=&quot;font-style: italic; text-align: left;&quot;&gt;&lt;font style=&quot;font-size: 14px;&quot;&gt;admin&lt;/font&gt;&lt;/span&gt;" style="text;strokeColor=none;fillColor=none;html=1;fontSize=14;fontStyle=1;verticalAlign=middle;align=center;fontColor=#99FF33;" vertex="1" parent="1">
                    <mxGeometry x="890" y="330" width="80" height="20" as="geometry"/>
                </mxCell>
                <mxCell id="38" value="&lt;span style=&quot;color: rgb(51, 153, 255); font-size: 14px; font-style: italic; text-align: left;&quot;&gt;user public&lt;/span&gt;" style="text;strokeColor=none;fillColor=none;html=1;fontSize=14;fontStyle=1;verticalAlign=middle;align=center;fontColor=#99FF33;" vertex="1" parent="1">
                    <mxGeometry x="906.5" y="350" width="80" height="20" as="geometry"/>
                </mxCell>
                <mxCell id="39" value="&lt;font style=&quot;font-style: italic; text-align: left; font-size: 14px;&quot; color=&quot;#ffff66&quot;&gt;user shop&lt;/font&gt;" style="text;strokeColor=none;fillColor=none;html=1;fontSize=14;fontStyle=1;verticalAlign=middle;align=center;fontColor=#99FF33;" vertex="1" parent="1">
                    <mxGeometry x="906.5" y="310" width="80" height="20" as="geometry"/>
                </mxCell>
                <mxCell id="40" value="&lt;span style=&quot;font-style: italic; text-align: left;&quot;&gt;&lt;font style=&quot;font-size: 14px;&quot;&gt;admin&lt;/font&gt;&lt;/span&gt;" style="text;strokeColor=none;fillColor=none;html=1;fontSize=14;fontStyle=1;verticalAlign=middle;align=center;fontColor=#99FF33;" vertex="1" parent="1">
                    <mxGeometry x="440" y="500" width="80" height="20" as="geometry"/>
                </mxCell>
                <mxCell id="41" value="&lt;font style=&quot;font-style: italic; text-align: left; font-size: 14px;&quot; color=&quot;#ffff66&quot;&gt;user shop&lt;/font&gt;" style="text;strokeColor=none;fillColor=none;html=1;fontSize=14;fontStyle=1;verticalAlign=middle;align=center;fontColor=#99FF33;" vertex="1" parent="1">
                    <mxGeometry x="450" y="520" width="80" height="20" as="geometry"/>
                </mxCell>
                <mxCell id="42" value="&lt;span style=&quot;color: rgb(51, 153, 255); font-size: 14px; font-style: italic; text-align: left;&quot;&gt;user public&lt;/span&gt;" style="text;strokeColor=none;fillColor=none;html=1;fontSize=14;fontStyle=1;verticalAlign=middle;align=center;fontColor=#99FF33;" vertex="1" parent="1">
                    <mxGeometry x="355" y="480" width="80" height="20" as="geometry"/>
                </mxCell>
                <mxCell id="43" value="&lt;span style=&quot;font-style: italic; text-align: left;&quot;&gt;&lt;font style=&quot;font-size: 14px;&quot;&gt;admin&lt;/font&gt;&lt;/span&gt;" style="text;strokeColor=none;fillColor=none;html=1;fontSize=14;fontStyle=1;verticalAlign=middle;align=center;fontColor=#99FF33;" vertex="1" parent="1">
                    <mxGeometry x="340" y="500" width="80" height="20" as="geometry"/>
                </mxCell>
                <mxCell id="44" value="&lt;font style=&quot;font-style: italic; text-align: left; font-size: 14px;&quot; color=&quot;#ffff66&quot;&gt;user shop&lt;/font&gt;" style="text;strokeColor=none;fillColor=none;html=1;fontSize=14;fontStyle=1;verticalAlign=middle;align=center;fontColor=#99FF33;" vertex="1" parent="1">
                    <mxGeometry x="350" y="520" width="80" height="20" as="geometry"/>
                </mxCell>
                <mxCell id="45" value="&lt;span style=&quot;color: rgb(51, 153, 255); font-size: 14px; font-style: italic; text-align: left;&quot;&gt;user public&lt;/span&gt;" style="text;strokeColor=none;fillColor=none;html=1;fontSize=14;fontStyle=1;verticalAlign=middle;align=center;fontColor=#99FF33;" vertex="1" parent="1">
                    <mxGeometry x="235" y="480" width="80" height="20" as="geometry"/>
                </mxCell>
                <mxCell id="46" value="&lt;span style=&quot;font-style: italic; text-align: left;&quot;&gt;&lt;font style=&quot;font-size: 14px;&quot;&gt;admin&lt;/font&gt;&lt;/span&gt;" style="text;strokeColor=none;fillColor=none;html=1;fontSize=14;fontStyle=1;verticalAlign=middle;align=center;fontColor=#99FF33;" vertex="1" parent="1">
                    <mxGeometry x="220" y="500" width="80" height="20" as="geometry"/>
                </mxCell>
                <mxCell id="47" value="&lt;font style=&quot;font-style: italic; text-align: left; font-size: 14px;&quot; color=&quot;#ffff66&quot;&gt;user shop&lt;/font&gt;" style="text;strokeColor=none;fillColor=none;html=1;fontSize=14;fontStyle=1;verticalAlign=middle;align=center;fontColor=#99FF33;" vertex="1" parent="1">
                    <mxGeometry x="230" y="520" width="80" height="20" as="geometry"/>
                </mxCell>
                <mxCell id="49" value="&lt;span style=&quot;font-style: italic; text-align: left;&quot;&gt;&lt;font style=&quot;font-size: 14px;&quot;&gt;admin&lt;/font&gt;&lt;/span&gt;" style="text;strokeColor=none;fillColor=none;html=1;fontSize=14;fontStyle=1;verticalAlign=middle;align=center;fontColor=#99FF33;" vertex="1" parent="1">
                    <mxGeometry x="100" y="480" width="80" height="20" as="geometry"/>
                </mxCell>
                <mxCell id="50" value="&lt;font style=&quot;font-style: italic; text-align: left; font-size: 14px;&quot; color=&quot;#ffff66&quot;&gt;user shop&lt;/font&gt;" style="text;strokeColor=none;fillColor=none;html=1;fontSize=14;fontStyle=1;verticalAlign=middle;align=center;fontColor=#99FF33;" vertex="1" parent="1">
                    <mxGeometry x="110" y="500" width="80" height="20" as="geometry"/>
                </mxCell>
                <mxCell id="51" value="&lt;span style=&quot;font-style: italic; text-align: left;&quot;&gt;&lt;font style=&quot;font-size: 14px;&quot;&gt;admin&lt;/font&gt;&lt;/span&gt;" style="text;strokeColor=none;fillColor=none;html=1;fontSize=14;fontStyle=1;verticalAlign=middle;align=center;fontColor=#99FF33;" vertex="1" parent="1">
                    <mxGeometry x="-150" y="500" width="80" height="20" as="geometry"/>
                </mxCell>
                <mxCell id="52" value="&lt;span style=&quot;color: rgb(51, 153, 255); font-size: 14px; font-style: italic; text-align: left;&quot;&gt;user public&lt;/span&gt;" style="text;strokeColor=none;fillColor=none;html=1;fontSize=14;fontStyle=1;verticalAlign=middle;align=center;fontColor=#99FF33;" vertex="1" parent="1">
                    <mxGeometry x="-135" y="480" width="80" height="20" as="geometry"/>
                </mxCell>
                <mxCell id="53" value="&lt;font style=&quot;font-style: italic; text-align: left; font-size: 14px;&quot; color=&quot;#ffff66&quot;&gt;user shop&lt;/font&gt;" style="text;strokeColor=none;fillColor=none;html=1;fontSize=14;fontStyle=1;verticalAlign=middle;align=center;fontColor=#99FF33;" vertex="1" parent="1">
                    <mxGeometry x="-140" y="520" width="80" height="20" as="geometry"/>
                </mxCell>
                <mxCell id="54" value="&lt;span style=&quot;color: rgb(51, 153, 255); font-size: 14px; font-style: italic; text-align: left;&quot;&gt;user public&lt;/span&gt;" style="text;strokeColor=none;fillColor=none;html=1;fontSize=14;fontStyle=1;verticalAlign=middle;align=center;fontColor=#99FF33;" vertex="1" parent="1">
                    <mxGeometry x="-252.5" y="480" width="80" height="20" as="geometry"/>
                </mxCell>
                <mxCell id="55" value="&lt;font style=&quot;font-style: italic; text-align: left; font-size: 14px;&quot; color=&quot;#ffff66&quot;&gt;user shop&lt;/font&gt;" style="text;strokeColor=none;fillColor=none;html=1;fontSize=14;fontStyle=1;verticalAlign=middle;align=center;fontColor=#99FF33;" vertex="1" parent="1">
                    <mxGeometry x="-257.5" y="520" width="80" height="20" as="geometry"/>
                </mxCell>
                <mxCell id="56" value="&lt;span style=&quot;font-style: italic; text-align: left;&quot;&gt;&lt;font style=&quot;font-size: 14px;&quot;&gt;admin&lt;/font&gt;&lt;/span&gt;" style="text;strokeColor=none;fillColor=none;html=1;fontSize=14;fontStyle=1;verticalAlign=middle;align=center;fontColor=#99FF33;" vertex="1" parent="1">
                    <mxGeometry x="-267.5" y="500" width="80" height="20" as="geometry"/>
                </mxCell>
                <mxCell id="57" value="&lt;span style=&quot;color: rgb(51, 153, 255); font-size: 14px; font-style: italic; text-align: left;&quot;&gt;user public&lt;/span&gt;" style="text;strokeColor=none;fillColor=none;html=1;fontSize=14;fontStyle=1;verticalAlign=middle;align=center;fontColor=#99FF33;" vertex="1" parent="1">
                    <mxGeometry x="-372.5" y="480" width="80" height="20" as="geometry"/>
                </mxCell>
                <mxCell id="58" value="&lt;font style=&quot;font-style: italic; text-align: left; font-size: 14px;&quot; color=&quot;#ffff66&quot;&gt;user shop&lt;/font&gt;" style="text;strokeColor=none;fillColor=none;html=1;fontSize=14;fontStyle=1;verticalAlign=middle;align=center;fontColor=#99FF33;" vertex="1" parent="1">
                    <mxGeometry x="-377.5" y="520" width="80" height="20" as="geometry"/>
                </mxCell>
                <mxCell id="59" value="&lt;span style=&quot;font-style: italic; text-align: left;&quot;&gt;&lt;font style=&quot;font-size: 14px;&quot;&gt;admin&lt;/font&gt;&lt;/span&gt;" style="text;strokeColor=none;fillColor=none;html=1;fontSize=14;fontStyle=1;verticalAlign=middle;align=center;fontColor=#99FF33;" vertex="1" parent="1">
                    <mxGeometry x="-387.5" y="500" width="80" height="20" as="geometry"/>
                </mxCell>
                <mxCell id="60" value="profile" style="rounded=1;fillColor=#10739E;strokeColor=none;shadow=1;gradientColor=none;fontStyle=1;fontColor=#FFFFFF;fontSize=14;" vertex="1" parent="1">
                    <mxGeometry x="-20" y="410" width="100" height="60" as="geometry"/>
                </mxCell>
                <mxCell id="61" value="&lt;span style=&quot;font-style: italic; text-align: left;&quot;&gt;&lt;font style=&quot;font-size: 14px;&quot;&gt;admin&lt;/font&gt;&lt;/span&gt;" style="text;strokeColor=none;fillColor=none;html=1;fontSize=14;fontStyle=1;verticalAlign=middle;align=center;fontColor=#99FF33;" vertex="1" parent="1">
                    <mxGeometry x="-20" y="480" width="80" height="20" as="geometry"/>
                </mxCell>
                <mxCell id="62" value="&lt;font style=&quot;font-style: italic; text-align: left; font-size: 14px;&quot; color=&quot;#ffff66&quot;&gt;user shop&lt;/font&gt;" style="text;strokeColor=none;fillColor=none;html=1;fontSize=14;fontStyle=1;verticalAlign=middle;align=center;fontColor=#99FF33;" vertex="1" parent="1">
                    <mxGeometry x="-10" y="500" width="80" height="20" as="geometry"/>
                </mxCell>
                <mxCell id="63" value="orderID" style="rounded=1;fillColor=#10739E;strokeColor=none;shadow=1;gradientColor=none;fontStyle=1;fontColor=#FFFFFF;fontSize=14;" vertex="1" parent="1">
                    <mxGeometry x="1232" y="530" width="108" height="60" as="geometry"/>
                </mxCell>
                <mxCell id="64" value="&lt;span style=&quot;font-style: italic; text-align: left;&quot;&gt;&lt;font style=&quot;font-size: 14px;&quot;&gt;admin&lt;/font&gt;&lt;/span&gt;" style="text;strokeColor=none;fillColor=none;html=1;fontSize=14;fontStyle=1;verticalAlign=middle;align=center;fontColor=#99FF33;" vertex="1" parent="1">
                    <mxGeometry x="1239" y="600" width="80" height="20" as="geometry"/>
                </mxCell>
                <mxCell id="65" value="&lt;font style=&quot;font-style: italic; text-align: left; font-size: 14px;&quot; color=&quot;#ffff66&quot;&gt;user shop&lt;/font&gt;" style="text;strokeColor=none;fillColor=none;html=1;fontSize=14;fontStyle=1;verticalAlign=middle;align=center;fontColor=#99FF33;" vertex="1" parent="1">
                    <mxGeometry x="1253" y="620" width="80" height="20" as="geometry"/>
                </mxCell>
                <mxCell id="73" value="cartEmpty" style="rounded=1;fillColor=#10739E;strokeColor=none;shadow=1;gradientColor=none;fontStyle=1;fontColor=#FFFFFF;fontSize=14;" vertex="1" parent="1">
                    <mxGeometry x="462.5" y="565" width="70" height="60" as="geometry"/>
                </mxCell>
                <mxCell id="74" value="&lt;span style=&quot;color: rgb(51, 153, 255); font-size: 14px; font-style: italic; text-align: left;&quot;&gt;user public&lt;/span&gt;" style="text;strokeColor=none;fillColor=none;html=1;fontSize=14;fontStyle=1;verticalAlign=middle;align=center;fontColor=#99FF33;" vertex="1" parent="1">
                    <mxGeometry x="457.5" y="635" width="80" height="20" as="geometry"/>
                </mxCell>
                <mxCell id="75" value="&lt;span style=&quot;font-style: italic; text-align: left;&quot;&gt;&lt;font style=&quot;font-size: 14px;&quot;&gt;admin&lt;/font&gt;&lt;/span&gt;" style="text;strokeColor=none;fillColor=none;html=1;fontSize=14;fontStyle=1;verticalAlign=middle;align=center;fontColor=#99FF33;" vertex="1" parent="1">
                    <mxGeometry x="442.5" y="655" width="80" height="20" as="geometry"/>
                </mxCell>
                <mxCell id="76" value="&lt;font style=&quot;font-style: italic; text-align: left; font-size: 14px;&quot; color=&quot;#ffff66&quot;&gt;user shop&lt;/font&gt;" style="text;strokeColor=none;fillColor=none;html=1;fontSize=14;fontStyle=1;verticalAlign=middle;align=center;fontColor=#99FF33;" vertex="1" parent="1">
                    <mxGeometry x="452.5" y="675" width="80" height="20" as="geometry"/>
                </mxCell>
            </root>
        </mxGraphModel>
    </diagram>
</mxfile>